<svg width="112" height="113" viewBox="0 0 112 113" fill="none" xmlns="http://www.w3.org/2000/svg">
<g filter="url(#filter0_d_1_1585)">
<path d="M56.0542 92.0147C78.1156 92.0147 95.9758 74.1061 95.9459 52.0147C95.916 29.9233 78.0074 12.0146 55.9459 12.0146C33.8844 12.0146 16.0242 29.9233 16.0541 52.0147C16.084 74.1061 33.9927 92.0147 56.0542 92.0147Z" fill="url(#paint0_linear_1_1585)"/>
<path d="M93.4459 52.0147C93.474 72.7286 76.7284 89.5147 56.0508 89.5147C35.3732 89.5147 18.5821 72.7286 18.5541 52.0147C18.5261 31.3008 35.2717 14.5146 55.9493 14.5146C76.6269 14.5146 93.4179 31.3008 93.4459 52.0147Z" stroke="white" stroke-width="5"/>
</g>
<path d="M40.376 36.4458C40.07 36.7518 40.07 65.2278 40.376 65.5338C40.628 65.7858 64.028 65.8398 64.424 65.5878C64.568 65.4978 64.64 65.2098 64.604 64.9218L64.55 64.3998L53.084 64.3458L41.6 64.3098V50.9898V37.6698H50.96H60.32L60.356 40.7658L60.41 43.8798L63.704 43.9338L66.98 43.9698V51.5838C66.98 55.7598 67.052 59.2878 67.142 59.4138C67.232 59.5578 67.52 59.6298 67.808 59.5938L68.33 59.5398L68.384 51.2418L68.42 42.9438L65.954 40.6038C64.586 39.3258 62.966 37.8138 62.354 37.2558L61.22 36.2298H50.906C43.13 36.2298 40.538 36.2838 40.376 36.4458ZM63.938 40.7658L65.792 42.5298H63.776H61.76V40.7118C61.76 39.7218 61.832 38.9298 61.922 38.9658C61.994 38.9838 62.912 39.8118 63.938 40.7658Z" fill="white"/>
<path d="M43.3284 39.8838C43.1304 40.0278 43.0224 40.2978 43.0764 40.5678L43.1304 40.9998L50.7624 41.0538C56.2344 41.0718 58.4664 41.0358 58.6284 40.8918C58.9524 40.6218 58.9524 40.2798 58.5924 39.9378C58.3584 39.6858 57.4044 39.6498 50.9784 39.6498C45.2364 39.6498 43.5804 39.7038 43.3284 39.8838Z" fill="white"/>
<path d="M43.1112 43.3401C42.8592 44.3481 42.7872 44.3301 50.9772 44.3301H58.5192L58.7352 43.8801C58.8792 43.5381 58.8792 43.3761 58.6992 43.1601C58.5012 42.9261 57.4752 42.8901 50.8512 42.8901H43.2192L43.1112 43.3401Z" fill="white"/>
<path d="M43.256 46.1656C42.968 46.4536 42.986 46.9396 43.292 47.1916C43.454 47.3356 46.532 47.3716 54.47 47.3536C64.658 47.2996 65.432 47.2816 65.612 46.9756C65.756 46.7596 65.756 46.5796 65.612 46.3456C65.432 46.0576 64.658 46.0396 54.434 45.9856C46.064 45.9496 43.418 46.0036 43.256 46.1656Z" fill="white"/>
<path d="M43.256 49.4057C42.968 49.6937 42.986 50.1797 43.292 50.4317C43.454 50.5757 44.966 50.6297 48.44 50.5937C52.886 50.5397 53.372 50.5037 53.552 50.2157C53.696 49.9997 53.696 49.8197 53.552 49.5857C53.372 49.3157 52.886 49.2797 48.422 49.2257C44.732 49.1897 43.418 49.2437 43.256 49.4057Z" fill="white"/>
<path d="M57.6209 49.3518C55.8929 49.9098 54.4349 51.1878 53.6789 52.7718C53.2829 53.6358 53.2109 54.0138 53.2109 55.4898C53.2109 56.8938 53.3009 57.3618 53.6429 58.1358C54.1469 59.2698 55.6769 60.7638 56.8469 61.2858C58.0529 61.8258 59.8709 61.9158 61.3289 61.5198C62.4629 61.2138 62.4989 61.2138 62.8769 61.5378C63.0749 61.7358 63.4709 62.2938 63.7589 62.7798C64.5329 64.1478 67.9709 67.4598 68.8889 67.7298C70.8869 68.3238 72.5069 66.3258 71.5709 64.4718C71.0309 63.4458 68.0789 60.5658 66.7649 59.7918C65.2169 58.8918 65.0909 58.6398 65.4689 57.4698C65.8829 56.2098 65.7389 53.9058 65.1989 52.7718C64.5869 51.4938 63.7049 50.5758 62.4449 49.9098C61.4369 49.3518 61.1309 49.2978 59.6909 49.2438C58.8089 49.2258 57.8729 49.2618 57.6209 49.3518ZM60.8969 50.8098C62.6429 51.2958 64.0829 53.1138 64.2269 55.0038C64.4069 57.1098 63.3449 58.9998 61.4909 59.8998C59.1329 61.0338 56.2709 59.9898 55.0829 57.5418C54.5969 56.5518 54.5249 56.2638 54.5969 55.2738C54.6869 53.8698 55.1369 52.9338 56.1269 51.9438C57.3329 50.7738 59.1689 50.3418 60.8969 50.8098ZM68.4569 63.2478C69.6809 64.4538 70.4009 65.2998 70.4009 65.5338C70.4009 65.9838 69.7709 66.4698 69.3209 66.3438C68.8349 66.2178 65.2709 62.5278 64.8569 61.6998C64.6589 61.3038 64.3349 60.8178 64.1189 60.6378C63.8489 60.3858 63.7949 60.2238 63.9209 60.0798C64.2449 59.6838 66.3689 61.1778 68.4569 63.2478Z" fill="white"/>
<path d="M60.1034 54.5718L58.9694 56.7138L58.2494 56.1018C57.2774 55.2738 56.3594 55.3458 56.3594 56.2278C56.3594 56.6058 58.7354 58.5498 59.2034 58.5498C59.6714 58.5498 59.7074 58.4958 61.2194 55.6878C62.6414 53.0238 62.7494 52.4298 61.7594 52.4298C61.2734 52.4298 61.1654 52.5918 60.1034 54.5718Z" fill="white"/>
<path d="M43.256 52.4658C42.968 52.7538 42.986 53.2398 43.292 53.4918C43.454 53.6358 44.75 53.6898 47.558 53.6538L51.59 53.5998V52.9698V52.3398L47.54 52.2858C44.534 52.2498 43.418 52.3038 43.256 52.4658Z" fill="white"/>
<path d="M43.1134 55.76C42.8794 56.696 43.1134 56.75 47.1634 56.75C49.1974 56.75 50.9794 56.678 51.1054 56.588C51.2494 56.498 51.3214 56.21 51.2854 55.922L51.2314 55.4L47.2354 55.346L43.2214 55.31L43.1134 55.76Z" fill="white"/>
<path d="M43.1107 58.9997C42.8767 59.9537 43.0567 59.9897 47.7367 59.9897C51.3907 59.9897 52.0567 59.9537 52.2907 59.7017C52.4527 59.5577 52.5787 59.3237 52.5787 59.1977C52.5787 58.6037 52.1647 58.5497 47.6827 58.5497H43.2187L43.1107 58.9997Z" fill="white"/>
<path d="M43.1674 61.7358C42.9154 61.9698 43.0594 62.6898 43.3834 62.8698C43.5994 62.9778 45.7594 63.0498 49.1074 63.0498C54.9214 63.0498 55.1914 63.0138 55.0654 62.1318L55.0114 61.6998L49.1434 61.6458C45.9214 61.6278 43.2394 61.6638 43.1674 61.7358Z" fill="white"/>
<defs>
<filter id="filter0_d_1_1585" x="0.0540771" y="0.0146484" width="111.892" height="112" filterUnits="userSpaceOnUse" color-interpolation-filters="sRGB">
<feFlood flood-opacity="0" result="BackgroundImageFix"/>
<feColorMatrix in="SourceAlpha" type="matrix" values="0 0 0 0 0 0 0 0 0 0 0 0 0 0 0 0 0 0 127 0" result="hardAlpha"/>
<feOffset dy="4"/>
<feGaussianBlur stdDeviation="8"/>
<feComposite in2="hardAlpha" operator="out"/>
<feColorMatrix type="matrix" values="0 0 0 0 0 0 0 0 0 0 0 0 0 0 0 0 0 0 0.15 0"/>
<feBlend mode="normal" in2="BackgroundImageFix" result="effect1_dropShadow_1_1585"/>
<feBlend mode="normal" in="SourceGraphic" in2="effect1_dropShadow_1_1585" result="shape"/>
</filter>
<linearGradient id="paint0_linear_1_1585" x1="55.9459" y1="12.0146" x2="57.7666" y2="153.835" gradientUnits="userSpaceOnUse">
<stop stop-color="#1643C3"/>
<stop offset="1"/>
</linearGradient>
</defs>
</svg>
