<svg width="112" height="113" viewBox="0 0 112 113" fill="none" xmlns="http://www.w3.org/2000/svg">
<g filter="url(#filter0_d_1_1605)">
<path d="M56.0542 92.0147C78.1156 92.0147 95.9758 74.1061 95.9459 52.0147C95.916 29.9233 78.0074 12.0146 55.9459 12.0146C33.8844 12.0146 16.0242 29.9233 16.0541 52.0147C16.084 74.1061 33.9927 92.0147 56.0542 92.0147Z" fill="url(#paint0_linear_1_1605)"/>
<path d="M93.4459 52.0147C93.474 72.7286 76.7284 89.5147 56.0508 89.5147C35.3732 89.5147 18.5821 72.7286 18.5541 52.0147C18.5261 31.3008 35.2717 14.5146 55.9493 14.5146C76.6269 14.5146 93.4179 31.3008 93.4459 52.0147Z" stroke="white" stroke-width="5"/>
</g>
<g clip-path="url(#clip0_1_1605)">
<path d="M53.2271 34.8248C49.6631 35.8148 46.6751 38.9108 45.8291 42.5108C45.3071 44.7248 45.5951 47.3708 46.5491 49.3868C47.0531 50.4308 47.1251 50.2868 45.3791 51.5108L44.1911 52.3388L43.6691 51.9608C43.3091 51.6908 42.8051 51.5468 42.0311 51.5108C41.0411 51.4388 40.7711 51.4928 40.0691 51.9068C39.0251 52.5188 38.5391 53.4548 38.5391 54.8048C38.5391 56.3168 39.1691 57.2708 40.5551 57.8648C42.9851 58.8728 45.5231 56.7848 45.1271 54.1208L45.0011 53.3468L46.3691 52.3928L47.7371 51.4388L48.9071 52.5368C49.5371 53.1488 50.1491 53.6348 50.2391 53.6348C50.5811 53.6348 50.4011 54.1028 48.7991 57.1268L47.1611 60.2048L46.3871 60.1508C43.4531 59.9168 41.7071 63.4988 43.6871 65.6948C45.2711 67.4408 48.2231 67.0268 49.1771 64.9028C49.7351 63.6788 49.5191 62.2748 48.6011 60.9968C48.4211 60.7628 48.6551 60.2048 49.8791 57.9008C51.8411 54.1928 51.6071 54.4628 52.5791 54.8048C53.0291 54.9668 53.8031 55.1468 54.2891 55.2188L55.1891 55.3448L55.2431 59.1428L55.2791 62.9228L54.6671 63.1388C53.3711 63.6068 52.4171 65.3348 52.6691 66.7928C52.8311 67.6928 53.6411 68.7908 54.4331 69.1688C55.2431 69.5648 56.7551 69.5648 57.5651 69.1688C58.8791 68.5568 59.6351 66.7928 59.2391 65.3168C58.9871 64.4168 58.1411 63.4268 57.3311 63.1388L56.7191 62.9228V59.1788V55.4348L57.2231 55.3448C58.2671 55.1288 59.7071 54.7508 59.9951 54.6248C60.3191 54.4988 60.5891 54.9308 62.6411 58.8728L63.6131 60.7448L63.1091 61.5188C61.3631 64.1648 63.5231 67.2968 66.7091 66.7028C67.4291 66.5588 68.4911 65.7128 68.8871 64.9568C69.2111 64.3268 69.2111 62.7968 68.8871 62.0408C68.4011 60.8708 66.8891 60.0248 65.5391 60.1508L64.8371 60.2048L63.1451 57.0188C62.2091 55.2548 61.5071 53.8148 61.5791 53.8148C61.6511 53.8148 62.2991 53.2748 63.0011 52.6268L64.2611 51.4568L65.6291 52.3928L66.9791 53.3468L66.8711 54.1748C66.7091 55.3808 67.0511 56.3708 67.8611 57.1088C69.4631 58.5488 71.6051 58.4048 72.8651 56.7668C73.5671 55.8308 73.6571 54.0488 73.0631 53.0048C72.1991 51.5288 70.0031 50.9708 68.4551 51.8348L67.7351 52.2308L66.3671 51.2948C65.5931 50.7908 64.9991 50.3228 65.0351 50.2508C66.3671 47.7128 66.7271 45.2288 66.1871 42.6368C65.3951 38.9648 62.3531 35.7968 58.6991 34.8248C57.4751 34.5008 54.4331 34.5008 53.2271 34.8248ZM58.2491 36.0668C61.1831 36.8588 63.5591 39.0188 64.6391 41.8988C65.1791 43.3208 65.3051 45.4808 64.9271 46.9568C64.4591 48.7928 63.0191 51.1868 63.0191 50.1428C63.0191 49.6028 62.2811 48.2708 61.6151 47.6048C60.8051 46.7768 59.3831 46.0928 58.1951 45.9488L57.3131 45.8588L56.7011 46.8668C56.3591 47.4248 56.0531 47.8748 55.9991 47.8748C55.9451 47.8748 55.6391 47.4248 55.2971 46.8668L54.6851 45.8588L53.8211 45.9488C52.6331 46.0928 51.3731 46.6688 50.5271 47.4788C49.8251 48.1628 48.9971 49.6748 48.9791 50.3048C48.9611 50.6288 48.9431 50.6288 48.6011 50.2148C47.6291 49.0628 46.8191 46.6688 46.8191 44.9588C46.8191 41.9348 48.6551 38.6588 51.2291 37.1468C53.3711 35.9048 56.0891 35.4728 58.2491 36.0668ZM54.7931 48.5048C55.4051 49.5128 55.6391 49.7648 55.9991 49.7648C56.3411 49.7648 56.5931 49.5128 57.2231 48.5048C57.8891 47.4068 58.0511 47.2448 58.4651 47.2988C60.1031 47.4968 61.6691 49.2248 61.8851 51.0788L61.9751 51.9248L60.9311 52.6088C57.9791 54.5348 54.0191 54.5348 51.0671 52.6088L50.0231 51.9248L50.1131 51.0788C50.3291 49.2788 51.5351 47.8568 53.2991 47.3168C53.5511 47.2448 53.8031 47.2088 53.8751 47.2088C53.9471 47.2268 54.3611 47.8028 54.7931 48.5048ZM43.0391 53.0948C43.6151 53.5088 44.0291 54.5168 43.8671 55.1468C43.6871 55.8488 43.0571 56.4968 42.3371 56.7128C41.0231 57.1088 39.7991 56.1008 39.7991 54.6068C39.7991 53.6348 40.7531 52.7348 41.7791 52.7348C42.2471 52.7348 42.7331 52.8788 43.0391 53.0948ZM71.5871 53.3468C73.3511 55.1108 71.1011 57.7748 69.0131 56.4068C67.3571 55.3448 68.1671 52.7348 70.1651 52.7348C70.8491 52.7348 71.0651 52.8248 71.5871 53.3468ZM47.1791 61.6628C48.5831 62.4908 48.5831 64.5248 47.1791 65.2448C45.3431 66.1988 43.4351 64.2908 44.3891 62.4548C44.9111 61.4648 46.2071 61.1048 47.1791 61.6628ZM66.8711 61.7168C67.8611 62.3648 68.1311 63.4088 67.6091 64.4348C66.8891 65.8388 64.7291 65.8388 64.0091 64.4348C63.0371 62.5628 65.1431 60.5828 66.8711 61.7168ZM57.0971 64.4888C58.3211 65.2988 58.3391 66.9008 57.1691 67.8188C55.6391 69.0248 53.3351 67.2428 54.0911 65.4428C54.3971 64.7228 55.2971 64.0748 56.0171 64.0748C56.2691 64.0748 56.7551 64.2548 57.0971 64.4888Z" fill="white"/>
<path d="M54.3783 37.5428C52.0923 38.5328 51.3903 41.3948 52.9203 43.5008C54.0903 45.1028 56.6463 45.4628 58.3743 44.2388C60.2103 42.9608 60.3543 39.7748 58.6623 38.2088C57.6723 37.2908 55.6923 36.9668 54.3783 37.5428ZM57.1863 38.8028C57.9963 39.1988 58.5723 40.1528 58.5723 41.1608C58.5723 42.0608 58.1943 42.6908 57.2583 43.3208C55.7103 44.3828 53.4243 43.0868 53.4243 41.1608C53.4243 39.1808 55.3863 37.9568 57.1863 38.8028Z" fill="white"/>
</g>
<defs>
<filter id="filter0_d_1_1605" x="0.0540771" y="0.0146484" width="111.892" height="112" filterUnits="userSpaceOnUse" color-interpolation-filters="sRGB">
<feFlood flood-opacity="0" result="BackgroundImageFix"/>
<feColorMatrix in="SourceAlpha" type="matrix" values="0 0 0 0 0 0 0 0 0 0 0 0 0 0 0 0 0 0 127 0" result="hardAlpha"/>
<feOffset dy="4"/>
<feGaussianBlur stdDeviation="8"/>
<feComposite in2="hardAlpha" operator="out"/>
<feColorMatrix type="matrix" values="0 0 0 0 0 0 0 0 0 0 0 0 0 0 0 0 0 0 0.15 0"/>
<feBlend mode="normal" in2="BackgroundImageFix" result="effect1_dropShadow_1_1605"/>
<feBlend mode="normal" in="SourceGraphic" in2="effect1_dropShadow_1_1605" result="shape"/>
</filter>
<linearGradient id="paint0_linear_1_1605" x1="55.9459" y1="12.0146" x2="57.7666" y2="153.835" gradientUnits="userSpaceOnUse">
<stop stop-color="#1643C3"/>
<stop offset="1"/>
</linearGradient>
<clipPath id="clip0_1_1605">
<rect width="36" height="36" fill="white" transform="translate(38 34.0146)"/>
</clipPath>
</defs>
</svg>
