<svg width="112" height="113" viewBox="0 0 112 113" fill="none" xmlns="http://www.w3.org/2000/svg">
<g filter="url(#filter0_d_1_1616)">
<path d="M56.0542 92.0147C78.1156 92.0147 95.9758 74.1061 95.9459 52.0147C95.916 29.9233 78.0074 12.0146 55.9459 12.0146C33.8844 12.0146 16.0242 29.9233 16.0541 52.0147C16.084 74.1061 33.9927 92.0147 56.0542 92.0147Z" fill="url(#paint0_linear_1_1616)"/>
<path d="M93.4459 52.0147C93.474 72.7286 76.7284 89.5147 56.0508 89.5147C35.3732 89.5147 18.5821 72.7286 18.5541 52.0147C18.5261 31.3008 35.2717 14.5146 55.9493 14.5146C76.6269 14.5146 93.4179 31.3008 93.4459 52.0147Z" stroke="white" stroke-width="5"/>
</g>
<g clip-path="url(#clip0_1_1616)">
<path d="M42.7965 33.0891C41.7129 33.3191 41.4532 33.4898 41.4532 33.9723C41.4532 34.1949 41.5793 34.3508 42.7446 35.5309L44.036 36.8371L43.8059 38.2176L43.5758 39.5906L42.2028 39.8207L40.8223 40.0508L39.5161 38.7594C38.2989 37.557 38.1876 37.468 37.9352 37.468C37.2895 37.468 37.0372 38.225 37.0372 40.177C37.0372 41.268 37.0594 41.5203 37.2079 42.025C37.9204 44.5039 39.761 46.3445 42.2399 47.057C43.0415 47.2871 45.0454 47.302 45.8989 47.0867L46.4407 46.9457L49.4243 49.9293L52.4004 52.9055L51.6805 53.6254L50.9532 54.3453L50.0774 53.477C49.2239 52.6383 49.1868 52.6086 48.8676 52.6086C48.5559 52.6086 48.5262 52.6309 47.5243 53.6328C46.3294 54.8203 46.3442 54.7906 46.7227 55.9113C46.8415 56.275 46.9305 56.5793 46.9231 56.5941C46.9083 56.6016 46.604 56.5125 46.2403 56.3937C45.0231 55.9855 45.4758 55.6812 41.6536 59.4887C39.8204 61.3219 38.1727 63.0066 37.9946 63.2367C37.5938 63.7488 37.2747 64.4168 37.104 65.0773C36.9184 65.7973 36.9852 67.1703 37.2376 67.8383C37.7645 69.241 38.8704 70.332 40.2583 70.807C40.6813 70.9555 40.8891 70.9777 41.8243 70.9777C42.7965 70.9703 42.945 70.9555 43.3977 70.7773C44.4442 70.384 44.5926 70.2504 48.3036 66.5617C52.3708 62.5168 52.0368 62.9992 51.6211 61.7746C51.5024 61.4109 51.4133 61.1066 51.4208 61.0918C51.4356 61.0844 51.7399 61.1734 52.1036 61.2922C53.2243 61.6707 53.1946 61.6855 54.3821 60.4906C55.384 59.4887 55.4063 59.459 55.4063 59.1473C55.4063 58.8281 55.3766 58.791 54.5379 57.9375L53.6696 57.0617L54.3895 56.3344L55.1094 55.6145L57.0391 57.5441L58.9688 59.4738L58.7833 60.023C58.3454 61.3219 58.2415 63.0289 58.5235 64.4094C59.1915 67.6676 61.7075 70.1836 65.0176 70.8738C65.9305 71.0668 67.4446 71.0668 68.3575 70.8738C71.6825 70.1762 74.1614 67.6973 74.859 64.3723C75.052 63.4594 75.052 61.9453 74.859 61.0324C74.1614 57.7074 71.6825 55.2285 68.3575 54.5309C67.0438 54.2562 65.2848 54.3676 64.0083 54.798L63.459 54.9836L61.5294 53.0539L59.5997 51.1242L64.2012 46.5227L68.8028 41.9211H70.2649C71.5711 41.9211 71.7493 41.9062 71.868 41.7875C71.9348 41.7207 72.6696 40.4367 73.4934 38.9449C74.718 36.7332 75.0001 36.1691 75.0001 35.9391C75.0001 35.6719 74.9333 35.5902 73.679 34.3359C72.4247 33.0816 72.3504 33.0148 72.0758 33.0148C71.8383 33.0148 71.2891 33.2895 69.0329 34.5437C67.5188 35.3824 66.2348 36.1246 66.1903 36.1914C66.1161 36.273 66.0938 36.7109 66.0938 37.7574V39.2121L61.4922 43.8137L56.8907 48.4152L53.9145 45.4391L50.9309 42.4555L51.0719 41.9137C51.2872 41.0602 51.2723 39.0562 51.0422 38.2547C50.3297 35.7906 48.4965 33.95 46.0473 33.2301C45.6094 33.1039 45.2606 33.0668 44.3106 33.0445C43.6575 33.0371 42.9747 33.052 42.7965 33.0891ZM45.5723 34.425C45.7801 34.477 46.2774 34.6773 46.6856 34.8703C47.9547 35.4863 48.7711 36.3027 49.3946 37.5793C49.8844 38.5812 50.018 39.2344 49.9735 40.3848C49.9438 41.0973 49.8919 41.4164 49.7434 41.884C49.6321 42.2105 49.543 42.5742 49.543 42.7004C49.543 42.8934 50.3001 43.6801 55.8961 49.2762L62.2493 55.6293L61.7743 55.9633C61.1731 56.3937 60.379 57.1879 59.9485 57.7891L59.6145 58.2641L53.2614 51.9109C46.2551 44.9047 46.8415 45.4168 46.1215 45.6766C45.1196 46.0328 43.8727 46.1145 42.8633 45.8918C42.559 45.825 41.9727 45.6098 41.5645 45.4094C40.2879 44.7859 39.479 43.977 38.8555 42.7004C38.4176 41.7949 38.2618 41.127 38.2618 40.1324V39.368L39.2489 40.3477C40.429 41.5129 40.1395 41.4461 42.4403 41.0676C44.3106 40.7633 44.5407 40.7039 44.652 40.5035C44.7559 40.3031 45.3126 37.0152 45.3126 36.5848C45.3126 36.2656 45.2903 36.2359 44.3403 35.2711L43.3606 34.284L43.7614 34.2617C44.2586 34.232 45.0825 34.3062 45.5723 34.425ZM72.7661 35.2711L73.6047 36.1098L72.3208 38.4254L71.0368 40.7336H69.5895H68.1348L63.4071 45.4613L58.6719 50.1965L58.2489 49.766L57.8184 49.343L62.5536 44.6078L67.2813 39.8801V38.4254V36.9781L69.5672 35.7016C70.8215 35.0039 71.8606 34.4324 71.8829 34.4324C71.9051 34.425 72.2985 34.8035 72.7661 35.2711ZM53.7735 54.2785L54.1817 54.6867L53.4544 55.4141L52.7344 56.134L52.3114 55.7035L51.8809 55.2805L52.586 54.5754C52.9719 54.1895 53.3059 53.8703 53.3282 53.8703C53.3504 53.8703 53.5508 54.0559 53.7735 54.2785ZM51.3985 56.6535L53.8848 59.1398L53.3653 59.6594L52.8458 60.1789L52.2669 59.9934C51.9477 59.8895 51.5469 59.8078 51.3762 59.8078C50.7083 59.8152 50.1368 60.3867 50.1368 61.077C50.1368 61.2625 50.2184 61.6633 50.3223 61.9676L50.5079 62.5168L47.2274 65.8047C44.0805 68.9516 43.9172 69.1074 43.3458 69.3895C41.5571 70.2801 39.4493 69.5379 38.5735 67.6973C38.3286 67.1703 38.2989 67.0516 38.2766 66.3762C38.2469 65.5375 38.3879 64.9512 38.7813 64.3352C38.9001 64.1496 40.4586 62.5391 42.2473 60.7578L45.4981 57.507L46.077 57.6926C46.3961 57.7965 46.7969 57.8781 46.9676 57.8781C47.6282 57.8707 48.1997 57.2992 48.2071 56.6387C48.2071 56.468 48.1254 56.0672 48.0215 55.748L47.8434 55.1691L48.3333 54.6645C48.6079 54.3898 48.8528 54.1672 48.8751 54.1672C48.8973 54.1672 50.0329 55.2879 51.3985 56.6535ZM67.9047 55.7332C70.4801 56.1488 72.6844 58.1305 73.4934 60.7504C73.679 61.3516 73.6938 61.5 73.6938 62.7023C73.6938 63.9047 73.679 64.0531 73.4934 64.6543C72.9145 66.5246 71.6973 68.0238 70.0051 68.9367C68.9364 69.5156 67.9047 69.7605 66.6133 69.7605C63.5333 69.7531 60.7797 67.6676 59.8965 64.6691C59.6516 63.8527 59.5626 62.4203 59.711 61.5445C60.1192 58.9914 62.0489 56.7648 64.5352 55.9633C65.6485 55.607 66.6579 55.5402 67.9047 55.7332Z" fill="white"/>
<path d="M45.8691 41.9209L45.4238 42.3662L46.0398 42.9822L46.6484 43.5908L47.1086 43.1232L47.5762 42.6631L46.9824 42.0693C46.6559 41.7428 46.3738 41.4756 46.3516 41.4756C46.3293 41.4756 46.1141 41.676 45.8691 41.9209Z" fill="white"/>
<path d="M42.752 62.5537L39.4863 65.8193L39.9539 66.2795L40.4141 66.7471L43.6945 63.4666L46.9824 60.1787L46.5371 59.7334C46.2922 59.4885 46.077 59.2881 46.0547 59.2881C46.0324 59.2881 44.548 60.7576 42.752 62.5537Z" fill="white"/>
<path d="M44.5332 64.335L41.2676 67.6006L41.7352 68.0607L42.1953 68.5283L45.4758 65.2479L48.7637 61.96L48.3184 61.5146C48.0734 61.2697 47.8582 61.0693 47.8359 61.0693C47.8137 61.0693 46.3293 62.5389 44.5332 64.335Z" fill="white"/>
<path d="M64.5723 59.4811C63.5555 59.9932 62.6723 60.4682 62.6277 60.535C62.5535 60.624 62.5312 61.1732 62.5312 62.6725C62.5312 63.7857 62.5535 64.7506 62.5758 64.8174C62.6426 64.9881 66.4055 66.8584 66.6875 66.8584C66.9695 66.8584 70.7324 64.9881 70.7992 64.8174C70.8586 64.6541 70.8586 60.7502 70.7992 60.5869C70.725 60.4014 66.9621 58.5459 66.6727 58.5533C66.5168 58.5533 65.7672 58.8873 64.5723 59.4811ZM68.209 60.6018L69.6562 61.3291V62.7021V64.0752L68.1719 64.8174L66.6875 65.5596L65.2031 64.8174L63.7188 64.0752V62.7021V61.3291L65.1512 60.6092C65.9305 60.2158 66.6207 59.8893 66.6652 59.8893C66.7172 59.8818 67.4148 60.2084 68.209 60.6018Z" fill="white"/>
</g>
<defs>
<filter id="filter0_d_1_1616" x="0.0540771" y="0.0146484" width="111.892" height="112" filterUnits="userSpaceOnUse" color-interpolation-filters="sRGB">
<feFlood flood-opacity="0" result="BackgroundImageFix"/>
<feColorMatrix in="SourceAlpha" type="matrix" values="0 0 0 0 0 0 0 0 0 0 0 0 0 0 0 0 0 0 127 0" result="hardAlpha"/>
<feOffset dy="4"/>
<feGaussianBlur stdDeviation="8"/>
<feComposite in2="hardAlpha" operator="out"/>
<feColorMatrix type="matrix" values="0 0 0 0 0 0 0 0 0 0 0 0 0 0 0 0 0 0 0.15 0"/>
<feBlend mode="normal" in2="BackgroundImageFix" result="effect1_dropShadow_1_1616"/>
<feBlend mode="normal" in="SourceGraphic" in2="effect1_dropShadow_1_1616" result="shape"/>
</filter>
<linearGradient id="paint0_linear_1_1616" x1="55.9459" y1="12.0146" x2="57.7666" y2="153.835" gradientUnits="userSpaceOnUse">
<stop stop-color="#1643C3"/>
<stop offset="1"/>
</linearGradient>
<clipPath id="clip0_1_1616">
<rect width="38" height="38" fill="white" transform="translate(37 33.0146)"/>
</clipPath>
</defs>
</svg>
