<svg width="112" height="113" viewBox="0 0 112 113" fill="none" xmlns="http://www.w3.org/2000/svg">
<g filter="url(#filter0_d_1_1572)">
<path d="M56.0542 92.0147C78.1156 92.0147 95.9758 74.1061 95.9459 52.0147C95.916 29.9233 78.0074 12.0146 55.9459 12.0146C33.8844 12.0146 16.0242 29.9233 16.0541 52.0147C16.084 74.1061 33.9927 92.0147 56.0542 92.0147Z" fill="url(#paint0_linear_1_1572)"/>
<path d="M93.4459 52.0147C93.474 72.7286 76.7284 89.5147 56.0508 89.5147C35.3732 89.5147 18.5821 72.7286 18.5541 52.0147C18.5261 31.3008 35.2717 14.5146 55.9493 14.5146C76.6269 14.5146 93.4179 31.3008 93.4459 52.0147Z" stroke="white" stroke-width="5"/>
</g>
<path d="M62.1797 39.7946C62.2997 40.0146 62.3997 40.3746 62.3997 40.5946C62.3997 40.8946 62.5597 40.9946 63.0397 41.0546C63.5997 41.0946 63.7197 41.2146 63.7597 41.6746C63.8397 42.3546 63.4997 42.8146 62.8997 42.8146C62.5597 42.8146 62.4197 42.9546 62.3397 43.3946C62.0797 44.6346 60.5997 44.6346 60.5997 43.4146C60.5997 42.8946 60.5197 42.8146 60.0197 42.8146C59.2997 42.8146 58.9597 42.4146 59.0397 41.6746C59.0997 41.1946 59.1997 41.1146 59.8397 41.0546C60.5397 40.9946 60.5797 40.9546 60.6397 40.2546C60.6997 39.5946 60.7597 39.5146 61.3397 39.4546C61.7997 39.4146 62.0197 39.4946 62.1797 39.7946Z" fill="white"/>
<path d="M55.5588 39.6546C55.6988 39.7946 55.7988 40.1546 55.7988 40.4546C55.7988 40.9346 55.8788 41.0146 56.3588 41.0146C56.6588 41.0146 57.0188 41.1146 57.1588 41.2546C57.7188 41.8146 57.1788 42.8146 56.2788 42.8146C55.9188 42.8146 55.7988 42.9146 55.7988 43.2546C55.7988 43.8146 55.5988 44.0946 55.1388 44.2746C54.5388 44.4946 53.9988 44.0746 53.9988 43.4146C53.9988 42.9346 53.9188 42.8146 53.5788 42.8146C52.9188 42.8146 52.3988 42.4346 52.3988 41.9546C52.3988 41.3346 52.7588 41.0146 53.4388 41.0146C53.9188 41.0146 53.9988 40.9346 53.9988 40.4546C53.9988 39.7946 54.3188 39.4146 54.8988 39.4146C55.1388 39.4146 55.4188 39.5146 55.5588 39.6546Z" fill="white"/>
<path d="M58.7588 44.6547C58.8988 44.7947 58.9988 45.3747 58.9988 45.9547V47.0147H60.0788C61.2188 47.0147 61.7988 47.3347 61.7988 47.9947C61.7988 48.5947 61.3588 48.8147 60.1588 48.8147H58.9988V49.9747C58.9988 51.2147 58.7788 51.6147 58.0988 51.6147C57.4188 51.6147 57.1988 51.2147 57.1988 49.9747V48.8347L55.9388 48.7747C54.7388 48.7147 54.6988 48.6947 54.6388 48.1147C54.5388 47.3347 55.0188 47.0147 56.2388 47.0147H57.1988V45.9547C57.1988 44.8147 57.4388 44.4147 58.0988 44.4147C58.3388 44.4147 58.6188 44.5147 58.7588 44.6547Z" fill="white"/>
<path d="M72.2997 50.4946C73.4597 50.9946 74.0397 52.7146 73.4197 53.8546C72.9997 54.6746 63.4997 61.0146 60.3997 62.5546C59.0797 63.2146 58.6797 63.3146 57.1997 63.3746C56.1397 63.4146 54.3797 63.2946 52.6197 63.0346C49.8397 62.6346 46.2797 62.4946 45.0197 62.7346C44.4797 62.8546 44.3997 62.9546 44.3997 63.5146C44.3997 64.5546 44.1397 64.6346 41.1797 64.5746L38.4997 64.5146V57.8146V51.1146H41.3997H44.2997L44.3597 51.8746C44.4197 52.5146 44.4797 52.6146 44.7597 52.5146C46.9197 51.6946 49.9397 51.6146 52.7197 52.3146C54.3997 52.7346 55.1397 52.8146 57.7597 52.8146C60.9197 52.8146 61.7397 52.9946 62.1597 53.7346C62.3197 54.0146 62.9197 53.7746 66.3197 52.1346C70.4797 50.1346 71.0997 49.9746 72.2997 50.4946ZM66.6997 54.0146C64.3997 55.1346 62.2397 56.2946 61.8597 56.6146C61.4997 56.9346 60.9997 57.2546 60.7397 57.3146C59.7797 57.5146 51.6797 57.7546 51.3397 57.5746C50.9597 57.3746 50.8597 56.3146 51.2197 56.0946C51.3397 56.0146 53.4397 55.8746 55.8797 55.7746C58.2997 55.6546 60.4197 55.4746 60.5597 55.3746C60.7397 55.2146 60.7397 55.0946 60.5797 54.8946C60.3997 54.6746 59.6197 54.6146 57.2197 54.6146C54.5197 54.6146 53.8597 54.5346 52.2997 54.1146C50.0797 53.4946 48.4797 53.4946 46.1997 54.0746C44.5197 54.5146 44.4997 54.5146 44.3997 55.2146C44.3197 55.8146 44.2197 55.9146 43.6797 55.9746C42.8397 56.0546 42.6397 55.7146 42.5397 54.1146C42.5197 53.3346 42.4797 55.0146 42.4797 57.8146C42.4797 60.6146 42.4997 62.3746 42.5397 61.7146C42.5797 61.0546 42.6397 60.3146 42.6997 60.0746C42.9197 59.1146 44.3997 59.3746 44.3997 60.3746V60.9146L47.1397 60.8546C49.1797 60.7946 50.6597 60.8946 52.9397 61.2146C56.8597 61.7746 57.8597 61.7146 59.7997 60.7546C62.1997 59.5746 71.5397 53.3946 71.7397 52.8546C71.8597 52.5546 71.4597 52.0146 71.0997 52.0146C70.9597 52.0146 68.9797 52.9146 66.6997 54.0146ZM39.9997 57.8146C39.9997 62.1346 40.0397 62.8146 40.2997 62.8146C40.5597 62.8146 40.5997 62.1346 40.5997 57.8146C40.5997 53.4946 40.5597 52.8146 40.2997 52.8146C40.0397 52.8146 39.9997 53.4946 39.9997 57.8146Z" fill="white"/>
<defs>
<filter id="filter0_d_1_1572" x="0.0540771" y="0.0146484" width="111.892" height="112" filterUnits="userSpaceOnUse" color-interpolation-filters="sRGB">
<feFlood flood-opacity="0" result="BackgroundImageFix"/>
<feColorMatrix in="SourceAlpha" type="matrix" values="0 0 0 0 0 0 0 0 0 0 0 0 0 0 0 0 0 0 127 0" result="hardAlpha"/>
<feOffset dy="4"/>
<feGaussianBlur stdDeviation="8"/>
<feComposite in2="hardAlpha" operator="out"/>
<feColorMatrix type="matrix" values="0 0 0 0 0 0 0 0 0 0 0 0 0 0 0 0 0 0 0.15 0"/>
<feBlend mode="normal" in2="BackgroundImageFix" result="effect1_dropShadow_1_1572"/>
<feBlend mode="normal" in="SourceGraphic" in2="effect1_dropShadow_1_1572" result="shape"/>
</filter>
<linearGradient id="paint0_linear_1_1572" x1="55.9459" y1="12.0146" x2="57.7666" y2="153.835" gradientUnits="userSpaceOnUse">
<stop stop-color="#1643C3"/>
<stop offset="1"/>
</linearGradient>
</defs>
</svg>
