<svg width="112" height="113" viewBox="0 0 112 113" fill="none" xmlns="http://www.w3.org/2000/svg">
<g filter="url(#filter0_d_1_1553)">
<path d="M56.0542 92.0147C78.1156 92.0147 95.9758 74.1061 95.9459 52.0147C95.916 29.9233 78.0074 12.0146 55.9459 12.0146C33.8844 12.0146 16.0242 29.9233 16.0541 52.0147C16.084 74.1061 33.9927 92.0147 56.0542 92.0147Z" fill="url(#paint0_linear_1_1553)"/>
<path d="M93.4459 52.0147C93.474 72.7286 76.7284 89.5147 56.0508 89.5147C35.3732 89.5147 18.5821 72.7286 18.5541 52.0147C18.5261 31.3008 35.2717 14.5146 55.9493 14.5146C76.6269 14.5146 93.4179 31.3008 93.4459 52.0147Z" stroke="white" stroke-width="5"/>
</g>
<g clip-path="url(#clip0_1_1553)">
<path d="M55.0718 33.1924C53.7433 33.8233 53.387 35.56 54.3593 36.6733C54.9679 37.3561 56.1183 37.5713 56.9792 37.1483C57.7585 36.7623 58.1816 36.0869 58.1816 35.2037C58.1816 34.3131 57.714 33.5635 56.9273 33.1924C56.6378 33.0588 56.43 33.0143 55.9995 33.0143C55.5691 33.0143 55.3613 33.0588 55.0718 33.1924ZM56.623 34.4244C56.9941 34.751 57.0906 35.0924 56.9273 35.508C56.764 35.9385 56.4374 36.1686 55.9995 36.1686C55.5616 36.1686 55.2351 35.9385 55.0718 35.508C54.9085 35.0924 55.005 34.751 55.3761 34.4244C55.5913 34.2389 55.6952 34.2018 55.9995 34.2018C56.3038 34.2018 56.4077 34.2389 56.623 34.4244Z" fill="white"/>
<path d="M43.3531 38.0317C42.8261 38.1949 42.173 38.8629 42.0172 39.3973C41.8613 39.9317 41.8687 40.4215 42.0468 40.8965C42.2547 41.4531 42.5738 41.802 43.123 42.0766C43.5535 42.2844 43.6425 42.3067 44.1769 42.277C45.4386 42.2176 46.2105 41.4457 46.2699 40.1914C46.2922 39.6645 46.2699 39.568 46.0621 39.1375C45.9285 38.8703 45.7058 38.5586 45.55 38.4324C44.9636 37.95 44.125 37.8016 43.3531 38.0317ZM44.5406 39.2192C45.2457 39.5531 45.2679 40.6367 44.5777 40.993C43.6945 41.4457 42.7297 40.4735 43.2343 39.6348C43.5312 39.1524 44.0433 38.9891 44.5406 39.2192Z" fill="white"/>
<path d="M67.0958 38.0616C66.554 38.2694 66.2051 38.5959 65.9379 39.1377C65.7301 39.5682 65.7079 39.6573 65.7376 40.1916C65.7969 41.4534 66.5688 42.2252 67.8231 42.2846C68.3501 42.3069 68.4465 42.2846 68.877 42.0768C69.8864 41.5795 70.3169 40.5256 69.9829 39.3975C69.8196 38.8409 69.1739 38.1951 68.6172 38.0319C68.0903 37.876 67.5559 37.8909 67.0958 38.0616ZM68.3797 39.2491C68.8622 39.5459 69.0254 40.058 68.7954 40.5553C68.4688 41.2381 67.452 41.2901 67.0587 40.6369C66.5243 39.7686 67.5188 38.7295 68.3797 39.2491Z" fill="white"/>
<path d="M54.7605 39.6422C53.8847 40.518 53.8476 40.5699 53.8476 40.8594C53.8476 41.1043 53.8847 41.2008 54.0406 41.3195C54.3523 41.5644 54.5527 41.5199 55.0054 41.0969L55.4062 40.7109V42.418V44.1176L54.7753 44.2066C53.5656 44.3848 52.3929 44.8598 51.3836 45.5797L50.8195 45.9805L49.6543 44.8152L48.489 43.65L49.0234 43.598C49.3945 43.5609 49.5949 43.5016 49.6988 43.3976C49.8918 43.2047 49.8843 42.7816 49.6914 42.5887C49.5503 42.4476 49.4464 42.4402 48.1773 42.4402C46.9156 42.4402 46.8043 42.4476 46.6187 42.5961L46.4257 42.7445V44.1473V45.55L46.6187 45.6984C47.1382 46.1066 47.6132 45.743 47.6132 44.9488V44.5555L48.7711 45.7133L49.9214 46.8637L49.4539 47.5687C48.7414 48.6301 48.2961 49.8176 48.1625 50.968L48.1105 51.4207H46.4554C45.5425 51.4207 44.7929 51.3984 44.7929 51.3762C44.7929 51.3465 44.9414 51.1609 45.1269 50.968C45.3125 50.775 45.4609 50.5449 45.4609 50.4633C45.4609 50.0402 45.0824 49.7285 44.6964 49.825C44.5777 49.8547 44.1472 50.2555 43.6054 50.8344C42.4105 52.1184 42.4031 52.0367 43.6277 53.2539C44.5035 54.1297 44.5554 54.1668 44.8449 54.1668C45.0898 54.1668 45.1863 54.1297 45.305 53.9738C45.55 53.6621 45.5054 53.4617 45.0824 53.009L44.6964 52.6082H46.4035H48.1105L48.1996 53.2094C48.3851 54.4191 48.8527 55.5621 49.58 56.5789L49.9957 57.1578L48.823 58.3379C48.1773 58.9836 47.6429 59.4734 47.6355 59.4215C47.6281 59.3695 47.5984 59.132 47.5761 58.8945C47.5168 58.3898 47.3535 58.1746 47.0121 58.1746C46.7004 58.1746 46.5296 58.2859 46.4554 58.5234C46.4183 58.6422 46.4035 59.3027 46.4257 60.0004C46.4777 61.7148 46.3441 61.5887 48.1402 61.5887H49.5355L49.6839 61.3957C50.0921 60.8762 49.7285 60.4012 48.9343 60.4012H48.541L49.7211 59.2211L50.8937 58.0484L51.5765 58.5012C52.6156 59.1988 53.8105 59.6441 54.9535 59.7777L55.4062 59.8297V61.5219C55.4062 62.457 55.3839 63.2215 55.3617 63.2215C55.332 63.2215 55.1464 63.073 54.9535 62.8875C54.7605 62.7019 54.5304 62.5535 54.4488 62.5535C54.0257 62.5535 53.714 62.932 53.8105 63.318C53.8402 63.4367 54.241 63.8672 54.8199 64.409C56.1039 65.6039 56.0222 65.6113 57.2394 64.3867C58.1152 63.5109 58.1523 63.459 58.1523 63.1695C58.1523 62.9246 58.1152 62.8281 57.9593 62.7094C57.6476 62.4644 57.4472 62.509 56.9945 62.932L56.5937 63.318V61.5812V59.8371L57.3136 59.7184C58.1671 59.5699 58.4046 59.4289 58.4343 59.043C58.4492 58.8351 58.4121 58.7312 58.2711 58.5828C58.0558 58.3676 57.9964 58.3601 57.2691 58.5086C56.4824 58.6793 55.2503 58.657 54.4711 58.4715C53.2242 58.182 52.0738 57.5141 51.1683 56.5715C49.914 55.2578 49.3203 53.7809 49.3203 51.9773C49.3203 50.0996 50.0105 48.4891 51.3687 47.1828C52.007 46.5816 52.43 46.2922 53.2093 45.9211C54.9312 45.1195 56.9945 45.1195 58.7164 45.9211C59.4957 46.2922 59.9187 46.5816 60.557 47.1828C61.9003 48.4742 62.6054 50.0996 62.6054 51.9254C62.6054 54.0184 61.8336 55.6734 60.1785 57.1281C59.8742 57.3953 59.6144 57.6848 59.5921 57.7812C59.5179 58.0633 59.6961 58.3898 59.9632 58.4566C60.2379 58.5383 60.4605 58.4641 60.8242 58.1746L61.0914 57.9594L62.3011 59.1691L63.5109 60.3789L62.9765 60.4309C62.6054 60.468 62.405 60.5273 62.3011 60.6312C62.1082 60.8242 62.1156 61.2473 62.3086 61.4402C62.4496 61.5812 62.5535 61.5887 63.8226 61.5887C65.0843 61.5887 65.1957 61.5812 65.3812 61.4328L65.5742 61.2844V59.8816V58.4789L65.3812 58.3305C64.8617 57.9223 64.3867 58.2859 64.3867 59.0801V59.4734L63.1918 58.2785L61.9968 57.0836L62.4273 56.4601C63.125 55.4285 63.548 54.3894 63.7261 53.2094L63.8152 52.6082H65.5148C66.4425 52.6082 67.207 52.6305 67.207 52.6527C67.207 52.6824 67.0586 52.868 66.873 53.0609C66.6875 53.2539 66.539 53.484 66.539 53.5656C66.539 53.9887 66.9175 54.3004 67.3035 54.2039C67.4222 54.1742 67.8527 53.7734 68.3945 53.1945C69.5894 51.9105 69.5968 51.9922 68.3722 50.775C67.4964 49.8992 67.4445 49.8621 67.155 49.8621C66.9101 49.8621 66.8136 49.8992 66.6949 50.0551C66.45 50.3668 66.4945 50.5672 66.9175 51.0199L67.3035 51.4207H65.5593H63.8152L63.7632 50.968C63.6296 49.8176 63.1843 48.6301 62.4718 47.5687L62.0043 46.8637L63.1769 45.691C63.8226 45.0453 64.357 44.5555 64.3644 44.6074C64.3718 44.6594 64.4015 44.8969 64.4238 45.1344C64.4832 45.6391 64.6464 45.8543 64.9878 45.8543C65.2996 45.8543 65.4703 45.743 65.5445 45.5055C65.5816 45.3867 65.5964 44.7262 65.5742 44.0285C65.5222 42.3141 65.6558 42.4402 63.8597 42.4402H62.4644L62.316 42.6332C61.9078 43.1527 62.2714 43.6277 63.0656 43.6277H63.4589L62.2789 44.8078L61.1062 45.9805L60.5421 45.5797C59.5476 44.8672 58.3972 44.3996 57.1949 44.2141L56.5937 44.125V42.4625C56.5937 41.5496 56.616 40.8074 56.6382 40.8074C56.6679 40.8074 56.8535 40.9559 57.0464 41.1414C57.2394 41.3269 57.4695 41.4754 57.5511 41.4754C57.9742 41.4754 58.2859 41.0969 58.1894 40.7109C58.1597 40.5922 57.7589 40.1617 57.18 39.6199C55.8961 38.425 55.9777 38.4176 54.7605 39.6422Z" fill="white"/>
<path d="M54.9178 46.4408C54.71 46.5299 54.517 46.8045 54.517 47.0123C54.517 47.1014 54.5838 47.2572 54.6729 47.3686C54.8213 47.5541 54.8361 47.5615 55.7268 47.5615C56.3131 47.5541 56.7881 47.5986 57.0701 47.6729C58.5694 48.0662 59.8756 49.3799 60.2615 50.8717C60.41 51.458 60.41 52.4971 60.2615 53.0834C59.9721 54.2115 59.0666 55.3545 58.0424 55.8889C56.276 56.8092 54.2498 56.4975 52.8471 55.0947C51.9639 54.2115 51.5483 53.2244 51.5483 51.9924C51.5483 50.6936 51.9565 49.7361 52.9361 48.7713C53.5002 48.2146 53.5522 48.1404 53.5522 47.8732C53.5522 47.5021 53.374 47.3389 52.9807 47.3389C52.7135 47.3389 52.6244 47.3908 52.1569 47.8287C51.5334 48.4002 51.0436 49.1053 50.7393 49.8697C50.4201 50.6787 50.3385 51.2057 50.3756 52.2521C50.4053 52.9869 50.4498 53.2764 50.6131 53.7588C50.9026 54.6049 51.3404 55.31 51.9861 55.9557C52.6319 56.5939 53.3295 57.0318 54.183 57.3361C54.7397 57.5291 54.851 57.5439 55.9643 57.5439C57.0776 57.5439 57.1889 57.5291 57.7455 57.3361C58.599 57.0318 59.2967 56.5939 59.9424 55.9557C60.5807 55.31 61.0186 54.6123 61.3229 53.7588C61.5158 53.2021 61.5307 53.0908 61.5307 51.9775C61.5307 50.8643 61.5158 50.7529 61.3229 50.1963C61.0186 49.3428 60.5807 48.6451 59.9424 47.9994C59.2967 47.3537 58.5916 46.9158 57.7455 46.6264C57.2334 46.4482 57.0108 46.4186 56.1127 46.3963C55.5412 46.3889 54.9994 46.4037 54.9178 46.4408Z" fill="white"/>
<path d="M38.6848 49.8621C38.0168 50.0328 37.4305 50.5152 37.1559 51.1238C36.9332 51.6136 36.9406 52.4449 37.1781 52.9421C37.6977 54.0406 39.0559 54.523 40.132 53.996C40.9262 53.6101 41.3418 52.9273 41.3418 52.0144C41.3418 51.3835 41.1859 50.9605 40.7926 50.5078C40.3324 49.9882 39.375 49.6914 38.6848 49.8621ZM39.7535 51.2054C39.9762 51.3613 40.1914 51.7621 40.1914 52.0144C40.1914 52.6675 39.427 53.2019 38.8406 52.957C38.1949 52.6898 37.9723 51.9105 38.3879 51.4132C38.7664 50.9679 39.3008 50.8789 39.7535 51.2054Z" fill="white"/>
<path d="M72.2383 49.8843C70.3012 50.4335 70.0637 53.1128 71.8672 53.996C72.9434 54.523 74.3016 54.0406 74.8211 52.9421C74.9547 52.6527 74.9992 52.4449 74.9992 52.0144C74.9992 51.3464 74.7988 50.864 74.3609 50.441C73.8117 49.914 72.9434 49.6914 72.2383 49.8843ZM73.166 51.0792C73.8191 51.3464 74.027 52.1332 73.5891 52.6378C73.2625 53.0089 72.9211 53.1054 72.5055 52.9421C71.652 52.6156 71.5852 51.5542 72.4016 51.1386C72.7875 50.9457 72.8469 50.9382 73.166 51.0792Z" fill="white"/>
<path d="M43.1017 61.967C42.1146 62.4569 41.6841 63.5108 42.0181 64.6315C42.1814 65.1881 42.8271 65.8338 43.3837 65.9971C43.9181 66.153 44.4079 66.1456 44.8829 65.9674C45.4025 65.7745 45.7513 65.4776 46.0185 64.9952C46.2189 64.6315 46.2411 64.5276 46.2411 63.9264C46.2411 63.1323 46.063 62.7092 45.5509 62.2491C45.1501 61.9002 44.6825 61.737 44.0517 61.737C43.6435 61.737 43.4728 61.7815 43.1017 61.967ZM44.5786 63.0358C45.2689 63.392 45.2466 64.4756 44.5415 64.8096C44.0442 65.0397 43.5321 64.8764 43.2353 64.394C42.7306 63.5553 43.6954 62.5831 44.5786 63.0358Z" fill="white"/>
<path d="M67.0809 61.8559C66.6653 62.0044 66.168 62.4571 65.9454 62.895C65.8118 63.1622 65.7524 63.4071 65.7376 63.8376C65.7079 64.3645 65.7301 64.461 65.9379 64.8915C66.4352 65.8934 67.4965 66.3313 68.6172 65.9973C69.1739 65.834 69.8196 65.1883 69.9829 64.6317C70.1387 64.0973 70.1313 63.6075 69.9532 63.1325C69.7454 62.5833 69.4337 62.227 68.8993 61.9672C68.5133 61.7743 68.3649 61.7372 67.9196 61.7446C67.6301 61.7446 67.2516 61.7965 67.0809 61.8559ZM68.4317 63.0731C68.7063 63.2438 68.9141 63.6223 68.9141 63.9415C68.9141 64.2235 68.6692 64.602 68.3797 64.7801C67.5411 65.2848 66.5688 64.32 67.0215 63.4368C67.2739 62.9544 67.9567 62.7837 68.4317 63.0731Z" fill="white"/>
<path d="M55.2808 66.7691C54.5238 67.0438 54.0043 67.6227 53.8484 68.3945C53.6406 69.3742 54.1601 70.4059 55.073 70.8363C55.5926 71.0813 56.409 71.0813 56.9285 70.8363C58.257 70.2055 58.6133 68.4688 57.641 67.3555C57.1066 66.7543 56.0601 66.4871 55.2808 66.7691ZM56.5797 68.0383C57.1066 68.4094 57.1289 69.159 56.6316 69.5969C56.409 69.7898 56.3051 69.827 56.0008 69.827C55.6965 69.827 55.5926 69.7898 55.3699 69.5969C55.2289 69.4707 55.073 69.2406 55.0285 69.0848C54.9543 68.8324 54.9617 68.7582 55.1176 68.4391C55.4219 67.8379 56.0527 67.6598 56.5797 68.0383Z" fill="white"/>
</g>
<defs>
<filter id="filter0_d_1_1553" x="0.0540771" y="0.0146484" width="111.892" height="112" filterUnits="userSpaceOnUse" color-interpolation-filters="sRGB">
<feFlood flood-opacity="0" result="BackgroundImageFix"/>
<feColorMatrix in="SourceAlpha" type="matrix" values="0 0 0 0 0 0 0 0 0 0 0 0 0 0 0 0 0 0 127 0" result="hardAlpha"/>
<feOffset dy="4"/>
<feGaussianBlur stdDeviation="8"/>
<feComposite in2="hardAlpha" operator="out"/>
<feColorMatrix type="matrix" values="0 0 0 0 0 0 0 0 0 0 0 0 0 0 0 0 0 0 0.15 0"/>
<feBlend mode="normal" in2="BackgroundImageFix" result="effect1_dropShadow_1_1553"/>
<feBlend mode="normal" in="SourceGraphic" in2="effect1_dropShadow_1_1553" result="shape"/>
</filter>
<linearGradient id="paint0_linear_1_1553" x1="55.9459" y1="12.0146" x2="57.7666" y2="153.835" gradientUnits="userSpaceOnUse">
<stop stop-color="#1643C3"/>
<stop offset="1"/>
</linearGradient>
<clipPath id="clip0_1_1553">
<rect width="38" height="38" fill="white" transform="translate(37 33.0146)"/>
</clipPath>
</defs>
</svg>
